<mxfile host="app.diagrams.net" agent="Mozilla/5.0 (Windows NT 10.0; Win64; x64) AppleWebKit/537.36 (KHTML, like Gecko) Chrome/139.0.0.0 Safari/537.36" version="28.1.1">
  <diagram name="Sayfa -1" id="q-JTq_MwkXCS8eybBKDj">
    <mxGraphModel dx="2066" dy="1137" grid="1" gridSize="10" guides="1" tooltips="1" connect="1" arrows="1" fold="1" page="1" pageScale="1" pageWidth="827" pageHeight="1169" math="0" shadow="0">
      <root>
        <mxCell id="0" />
        <mxCell id="1" parent="0" />
        <mxCell id="O1bK9W54CTZ-ofnbBub_-4" value="" style="edgeStyle=orthogonalEdgeStyle;rounded=0;orthogonalLoop=1;jettySize=auto;html=1;" parent="1" source="O1bK9W54CTZ-ofnbBub_-2" target="O1bK9W54CTZ-ofnbBub_-3" edge="1">
          <mxGeometry relative="1" as="geometry" />
        </mxCell>
        <mxCell id="O1bK9W54CTZ-ofnbBub_-2" value="" style="sketch=0;outlineConnect=0;fontColor=#232F3E;gradientColor=none;fillColor=#232F3D;strokeColor=none;dashed=0;verticalLabelPosition=bottom;verticalAlign=top;align=center;html=1;fontSize=12;fontStyle=0;aspect=fixed;pointerEvents=1;shape=mxgraph.aws4.users;" parent="1" vertex="1">
          <mxGeometry x="30" y="355" width="80" height="80" as="geometry" />
        </mxCell>
        <mxCell id="nUg39VG_-XXE1DFYru35-10" style="edgeStyle=orthogonalEdgeStyle;rounded=0;orthogonalLoop=1;jettySize=auto;html=1;entryX=0;entryY=0.5;entryDx=0;entryDy=0;entryPerimeter=0;" parent="1" source="O1bK9W54CTZ-ofnbBub_-3" target="nUg39VG_-XXE1DFYru35-5" edge="1">
          <mxGeometry relative="1" as="geometry">
            <mxPoint x="240" y="305" as="targetPoint" />
            <mxPoint x="240" y="330" as="sourcePoint" />
            <Array as="points">
              <mxPoint x="240" y="165" />
            </Array>
          </mxGeometry>
        </mxCell>
        <mxCell id="O1bK9W54CTZ-ofnbBub_-3" value="" style="sketch=0;pointerEvents=1;shadow=0;dashed=0;html=1;strokeColor=none;fillColor=#505050;labelPosition=center;verticalLabelPosition=bottom;verticalAlign=top;outlineConnect=0;align=center;shape=mxgraph.office.devices.mac_client;" parent="1" vertex="1">
          <mxGeometry x="180" y="340" width="120" height="110" as="geometry" />
        </mxCell>
        <mxCell id="O1bK9W54CTZ-ofnbBub_-6" value="Web" style="text;strokeColor=none;fillColor=none;html=1;fontSize=19;fontStyle=1;verticalAlign=middle;align=center;strokeWidth=1;" parent="1" vertex="1">
          <mxGeometry x="190" y="365" width="100" height="40" as="geometry" />
        </mxCell>
        <mxCell id="nUg39VG_-XXE1DFYru35-1" value="" style="image;sketch=0;aspect=fixed;html=1;points=[];align=center;fontSize=12;image=img/lib/mscae/Docker.svg;" parent="1" vertex="1">
          <mxGeometry x="1110.58" y="170" width="50" height="41" as="geometry" />
        </mxCell>
        <mxCell id="nUg39VG_-XXE1DFYru35-11" value="" style="edgeStyle=orthogonalEdgeStyle;rounded=0;orthogonalLoop=1;jettySize=auto;html=1;" parent="1" source="nUg39VG_-XXE1DFYru35-5" target="nUg39VG_-XXE1DFYru35-9" edge="1">
          <mxGeometry relative="1" as="geometry">
            <mxPoint x="1340" y="165" as="targetPoint" />
          </mxGeometry>
        </mxCell>
        <mxCell id="nUg39VG_-XXE1DFYru35-14" value="" style="edgeStyle=orthogonalEdgeStyle;rounded=0;orthogonalLoop=1;jettySize=auto;html=1;" parent="1" source="nUg39VG_-XXE1DFYru35-5" target="nUg39VG_-XXE1DFYru35-13" edge="1">
          <mxGeometry relative="1" as="geometry" />
        </mxCell>
        <mxCell id="nUg39VG_-XXE1DFYru35-5" value="" style="sketch=0;aspect=fixed;pointerEvents=1;shadow=0;dashed=0;html=1;strokeColor=none;labelPosition=center;verticalLabelPosition=bottom;verticalAlign=top;align=center;fillColor=#00188D;shape=mxgraph.mscae.enterprise.application_blank" parent="1" vertex="1">
          <mxGeometry x="1060" y="100" width="151.16" height="130" as="geometry" />
        </mxCell>
        <mxCell id="nUg39VG_-XXE1DFYru35-6" value="&lt;font style=&quot;font-size: 15px;&quot;&gt;Auth.Service&lt;/font&gt;" style="text;strokeColor=none;fillColor=none;html=1;fontSize=19;fontStyle=1;verticalAlign=middle;align=center;strokeWidth=1;" parent="1" vertex="1">
          <mxGeometry x="1085.58" y="135" width="100" height="40" as="geometry" />
        </mxCell>
        <mxCell id="nUg39VG_-XXE1DFYru35-8" value="" style="shape=cylinder3;whiteSpace=wrap;html=1;boundedLbl=1;backgroundOutline=1;size=15;" parent="1" vertex="1">
          <mxGeometry x="1360" y="110" width="140" height="100" as="geometry" />
        </mxCell>
        <mxCell id="nUg39VG_-XXE1DFYru35-9" value="&lt;font style=&quot;font-size: 11px;&quot;&gt;ETrade.AuthServiceDb&lt;/font&gt;" style="text;strokeColor=none;fillColor=none;html=1;fontSize=19;fontStyle=1;verticalAlign=middle;align=center;strokeWidth=1;" parent="1" vertex="1">
          <mxGeometry x="1355" y="145" width="150" height="40" as="geometry" />
        </mxCell>
        <mxCell id="nUg39VG_-XXE1DFYru35-13" value="" style="image;sketch=0;aspect=fixed;html=1;points=[];align=center;fontSize=12;image=img/lib/mscae/Cache_Redis_Product.svg;" parent="1" vertex="1">
          <mxGeometry x="1101.65" y="10" width="67.86" height="57" as="geometry" />
        </mxCell>
      </root>
    </mxGraphModel>
  </diagram>
</mxfile>
